<?xml version="1.0" encoding="iso-8859-1"?>
<!-- Uploaded to: SVG Repo, www.svgrepo.com, Generator: SVG Repo Mixer Tools -->
<svg version="1.1" id="Layer_1" xmlns="http://www.w3.org/2000/svg" xmlns:xlink="http://www.w3.org/1999/xlink" 
	 viewBox="0 0 496.158 496.158" xml:space="preserve">
<path style="fill:#D61E1E;" d="M248.082,0.003C111.07,0.003,0,111.063,0,248.085c0,137.001,111.07,248.07,248.082,248.07
	c137.006,0,248.076-111.069,248.076-248.07C496.158,111.062,385.088,0.003,248.082,0.003z"/>
<path style="fill:#F4EDED;" d="M248.082,39.002C132.609,39.002,39,132.602,39,248.084c0,115.463,93.609,209.072,209.082,209.072
	c115.467,0,209.076-93.609,209.076-209.072C457.158,132.602,363.549,39.002,248.082,39.002z"/>
<path style="fill:#5B5147;" d="M327.238,344.625l-33.691-221.691c-1.469-9.665-10.494-16.311-20.16-14.841l-145.85,22.165
	c-9.665,1.468-16.311,10.495-14.842,20.162l33.689,221.689c1.47,9.666,10.496,16.31,20.162,14.842l145.848-22.165
	C322.062,363.317,328.705,354.29,327.238,344.625z"/>
<g>
	<path style="fill:#F4EDED;" d="M151.605,160.21c-0.807,0.057-1.459-0.082-1.955-0.412c-0.659-0.441-1.593-1.607-2.8-3.5
		l-12.685-20.003l-0.367,0.056l-6.179,22.277c-0.584,2.127-1.129,3.554-1.637,4.283c-0.507,0.728-1.218,1.234-2.136,1.518
		l0.108,0.713l8.695-1.323l-0.11-0.711c-1.377,0.102-2.256,0.08-2.635-0.073c-0.643-0.257-1.02-0.753-1.133-1.486
		c-0.084-0.551-0.01-1.279,0.221-2.182l0.713-2.711l9.233-1.404l1.884,3.046c0.488,0.794,0.753,1.247,0.797,1.358
		c0.113,0.232,0.188,0.464,0.224,0.696c0.06,0.384-0.037,0.701-0.289,0.951c-0.368,0.345-1.06,0.595-2.075,0.751l-0.521,0.078
		l0.108,0.714l12.645-1.922L151.605,160.21z M130.165,155.126l2.642-9.611l5.262,8.41L130.165,155.126z"/>
	<path style="fill:#F4EDED;" d="M148.656,171.193c0,0-6.023-3.911-8.067,4.947c-4.58-7.851-9.172-2.326-9.172-2.326
		c-6.044,6.953,10.771,17.373,11.517,17.829l0.003,0.021c0,0,0.003-0.004,0.011-0.012c0.01,0.005,0.015,0.008,0.015,0.008
		l-0.004-0.023C143.534,190.983,156.494,176.037,148.656,171.193z"/>
	<path style="fill:#F4EDED;" d="M254.7,198.639c0,0-28.803-18.697-38.569,23.641c-21.902-37.525-43.85-11.115-43.85-11.115
		c-28.889,33.237,51.49,83.047,55.052,85.229l0.015,0.101c0,0,0.02-0.021,0.052-0.06c0.045,0.027,0.069,0.042,0.069,0.042
		l-0.014-0.102C230.204,293.234,292.156,221.795,254.7,198.639z"/>
	<path style="fill:#F4EDED;" d="M370.615,142.225L228.284,103.43c-9.431-2.571-19.162,2.992-21.734,12.424l-58.968,216.345
		c-2.571,9.431,2.991,19.164,12.424,21.734l142.331,38.794c9.435,2.571,19.163-2.991,21.736-12.424l58.966-216.343
		C385.609,154.528,380.051,144.797,370.615,142.225z"/>
</g>
<path style="fill:none;stroke:#000000;stroke-width:2.194;stroke-miterlimit:10;" d="M370.615,142.225L228.284,103.43
	c-9.431-2.571-19.162,2.992-21.734,12.424l-58.968,216.345c-2.571,9.431,2.991,19.164,12.424,21.734l142.331,38.794
	c9.435,2.571,19.163-2.991,21.736-12.424l58.966-216.343C385.609,154.528,380.051,144.797,370.615,142.225z"/>
<g>
	<path style="fill:#5B5147;" d="M236.541,139.396c-0.424-0.668-0.805-2.113-1.145-4.334l-3.495-23.424l-0.358-0.098l-14.671,17.866
		c-1.395,1.708-2.473,2.792-3.231,3.252c-0.757,0.46-1.613,0.635-2.566,0.523l-0.189,0.696l8.483,2.312l0.19-0.696
		c-1.303-0.462-2.095-0.84-2.38-1.132c-0.484-0.497-0.63-1.101-0.435-1.816c0.146-0.54,0.508-1.174,1.086-1.908l1.75-2.189
		l9.011,2.456l0.486,3.549c0.126,0.923,0.186,1.445,0.181,1.564c0.01,0.26-0.015,0.501-0.078,0.728
		c-0.101,0.377-0.318,0.627-0.648,0.752c-0.477,0.167-1.211,0.115-2.202-0.156l-0.509-0.138l-0.188,0.695l12.339,3.363l0.19-0.695
		C237.402,140.289,236.861,139.901,236.541,139.396z M220.617,127.234l6.307-7.718l1.405,9.82L220.617,127.234z"/>
	<path style="fill:#5B5147;" d="M226.349,154.409c-1.249-0.34-2.515-0.156-3.573,0.41l-0.178-0.613
		c1.603-0.441,2.939-1.687,3.408-3.408c0.706-2.591-0.822-5.265-3.415-5.972c-2.591-0.707-5.265,0.821-5.972,3.414
		c-0.471,1.729,0.056,3.491,1.225,4.685l-0.423,0.398c-0.625-1.003-1.611-1.786-2.844-2.122c-2.592-0.707-5.267,0.823-5.973,3.414
		c-0.707,2.594,0.821,5.267,3.414,5.973c2.127,0.58,4.308-0.348,5.411-2.13l0.883,0.24c-1.54,5.255-5.932,7.154-5.932,7.154
		l8.369,2.282c0,0-2.82-3.865-1.482-9.173l0.941,0.255c0.045,2.096,1.457,4.002,3.582,4.58c2.592,0.708,5.265-0.82,5.972-3.413
		C230.47,157.79,228.941,155.116,226.349,154.409z"/>
	<path style="fill:#5B5147;" d="M311.725,357.661l-0.188,0.695c1.301,0.464,2.093,0.841,2.378,1.134
		c0.483,0.496,0.63,1.103,0.433,1.817c-0.146,0.539-0.508,1.176-1.085,1.906l-1.747,2.19l-9.012-2.455l-0.487-3.548
		c-0.126-0.924-0.187-1.446-0.181-1.564c-0.012-0.259,0.016-0.5,0.076-0.727c0.103-0.376,0.32-0.626,0.65-0.752
		c0.478-0.167,1.211-0.117,2.202,0.153l0.508,0.139l0.189-0.695l-12.341-3.363l-0.189,0.695c0.76,0.275,1.301,0.664,1.621,1.171
		c0.424,0.668,0.805,2.111,1.144,4.331l3.496,23.427l0.358,0.098l14.671-17.868c1.395-1.71,2.471-2.792,3.231-3.251
		c0.758-0.462,1.613-0.635,2.566-0.524l0.189-0.695L311.725,357.661z M304.169,374.335l-1.405-9.82l7.713,2.103L304.169,374.335z"/>
	<path style="fill:#5B5147;" d="M319.112,333.761c-2.126-0.58-4.306,0.346-5.411,2.13l-0.881-0.24
		c1.538-5.256,5.932-7.154,5.932-7.154l-8.369-2.282c0,0,2.821,3.865,1.48,9.175l-0.939-0.255c-0.046-2.099-1.456-4.003-3.582-4.583
		c-2.591-0.706-5.267,0.822-5.973,3.412c-0.707,2.592,0.823,5.266,3.415,5.973c1.248,0.341,2.516,0.158,3.573-0.407l0.179,0.611
		c-1.603,0.443-2.94,1.688-3.41,3.408c-0.706,2.594,0.822,5.266,3.413,5.973c2.595,0.708,5.267-0.821,5.974-3.415
		c0.471-1.728-0.054-3.488-1.226-4.684l0.422-0.4c0.627,1.005,1.615,1.788,2.846,2.123c2.593,0.707,5.266-0.822,5.974-3.416
		C323.234,337.14,321.705,334.467,319.112,333.761z"/>
	<path style="fill:#5B5147;" d="M297.505,240.871c-5.973-1.63-12.024-0.754-17.084,1.954l-0.85-2.93
		c7.661-2.11,14.05-8.067,16.29-16.291c3.379-12.392-3.928-25.173-16.319-28.551c-12.39-3.377-25.172,3.929-28.55,16.32
		c-1.126,4.133-1.06,8.305-0.013,12.158c1.047,3.851,3.073,7.382,5.87,10.235l-2.025,1.909c-2.991-4.799-7.707-8.54-13.594-10.143
		c-12.391-3.377-25.173,3.927-28.552,16.32c-3.377,12.392,3.931,25.174,16.322,28.55c10.167,2.773,20.59-1.66,25.871-10.184
		l4.21,1.148c-7.359,25.123-28.346,34.196-28.346,34.196l39.998,10.901c0,0-13.48-18.47-7.073-43.85l4.487,1.223
		c0.227,10.023,6.957,19.132,17.127,21.904c12.389,3.377,25.171-3.928,28.55-16.32C317.201,257.029,309.894,244.247,297.505,240.871
		z"/>
</g>
<path style="fill:#D61E1E;" d="M85.85,60.394c-9.086,7.86-17.596,16.37-25.456,25.456l349.914,349.914
	c9.086-7.861,17.596-16.37,25.456-25.456L85.85,60.394z"/>
</svg>